<?xml version="1.0" encoding="UTF-8"?>
<svg version="1.1" xmlns="http://www.w3.org/2000/svg" width="360" height="360">
<path d="M0 0 C2.37075548 2.12500644 4.6860425 4.29802545 7 6.484375 C8.35008458 7.63501527 9.70411589 8.7810446 11.0625 9.921875 C43.50854015 38.40949825 61.11106867 83.19915334 64 125.484375 C66.34358128 169.89731227 52.07061417 215.70789048 22.1875 249.046875 C20.79252365 250.5268499 19.39676434 252.00608745 18 253.484375 C16.84935973 254.83445958 15.7033304 256.18849089 14.5625 257.546875 C-13.92512325 289.99291515 -58.71477834 307.59544367 -101 310.484375 C-143.52513428 312.72834072 -187.14076169 299.94018274 -220 272.484375 C-220.58265625 272.00709961 -221.1653125 271.52982422 -221.765625 271.03808594 C-228.78347062 265.28360249 -235.30776376 259.43957934 -241.23046875 252.54296875 C-242.89387498 250.54705355 -242.89387498 250.54705355 -244.43432617 249.08496094 C-267.31241768 225.69672331 -281.27847534 189.43148925 -285 157.484375 C-285.10957031 156.60136719 -285.21914063 155.71835938 -285.33203125 154.80859375 C-290.0450498 109.37509494 -277.18472326 63.42671918 -249 27.484375 C-246.10916732 24.03692236 -243.08874925 20.75340145 -240 17.484375 C-238.84935973 16.13429042 -237.7033304 14.78025911 -236.5625 13.421875 C-208.75333519 -18.25143344 -164.77424581 -36.1986265 -123.48095703 -39.35449219 C-79.07442802 -42.23860055 -34.22646284 -28.7003152 0 0 Z " fill="#FEAF31" transform="translate(291,44.515625)"/>
<path d="M0 0 C0.5878125 1.546875 0.5878125 1.546875 1.1875 3.125 C3.67847727 8.90219612 7.24435104 13.19596589 13 16 C14.32 16.33 15.64 16.66 17 17 C17.33 31.19 17.66 45.38 18 60 C19.65 60 21.3 60 23 60 C24.77490546 58.22509454 24.23499973 55.62215098 24.31640625 53.21484375 C24.35830078 52.04501953 24.40019531 50.87519531 24.44335938 49.66992188 C24.48267578 48.43822266 24.52199219 47.20652344 24.5625 45.9375 C24.60568359 44.70193359 24.64886719 43.46636719 24.69335938 42.19335938 C24.79984198 39.12902665 24.90185424 36.06460927 25 33 C33.52351824 31.65102584 33.52351824 31.65102584 37 34 C41.08907661 39.11802726 41.62034157 44.65093017 41.38671875 51.03125 C40.4717359 58.05536079 37.55285172 63.53063154 32 68 C28.58160951 69.75088294 26.93615981 70 23 70 C23.04382813 70.88300781 23.08765625 71.76601562 23.1328125 72.67578125 C22.91725086 78.0711622 20.4055624 82.24584905 18 87 C17.53078125 87.93714844 17.0615625 88.87429687 16.578125 89.83984375 C6.51018988 109.1367194 -8.40076028 118.84651051 -28 127 C-28 128.98 -28 130.96 -28 133 C-26.96875 133.33 -25.9375 133.66 -24.875 134 C-21.55581988 135.3857412 -20.21943908 136.85805161 -18.3125 139.875 C-15.09938629 144.55404357 -11.40696031 145.79988774 -6.2109375 147.75 C8.044664 153.29962589 18.90087788 162.86465431 25.8125 176.4375 C26.15635742 177.11159912 26.50021484 177.78569824 26.85449219 178.48022461 C28.15906012 181.26513604 29.02357157 183.48034277 28.88305664 186.578125 C28 189 28 189 25.89306641 190.33032227 C24.97187012 190.65572998 24.05067383 190.9811377 23.1015625 191.31640625 C22.07426025 191.68628662 21.04695801 192.05616699 19.98852539 192.43725586 C18.87856201 192.80858643 17.76859863 193.17991699 16.625 193.5625 C15.49118896 193.95381104 14.35737793 194.34512207 13.18920898 194.74829102 C3.58133809 197.97933429 -5.98445775 200.46033002 -16 202 C-16.73734375 202.11424316 -17.4746875 202.22848633 -18.234375 202.34619141 C-48.38219626 206.79325857 -89.33585601 205.49286718 -116 189 C-117.12053571 186.23660717 -117.19273095 184.72839009 -116.43359375 181.859375 C-113.76320091 176.20442545 -110.7058329 171.04029341 -107 166 C-106.52175781 165.33097656 -106.04351562 164.66195312 -105.55078125 163.97265625 C-98.88400704 155.49225077 -89.1601437 149.88917453 -79.0625 146.5 C-73.27379275 144.49783791 -70.84331996 141.99263405 -67.5 136.9609375 C-65.43127879 134.2565155 -63.2983748 133.56313716 -60 133 C-59.67 130.69 -59.34 128.38 -59 126 C-59.59425781 125.84144531 -60.18851562 125.68289063 -60.80078125 125.51953125 C-67.52497495 123.62671778 -73.71039612 121.02522772 -80 118 C-80 117.34 -80 116.68 -80 116 C-80.53625 115.938125 -81.0725 115.87625 -81.625 115.8125 C-89.4453803 113.13710674 -95.61024791 104.64733889 -100 98 C-100 97.34 -100 96.68 -100 96 C-100.66 96 -101.32 96 -102 96 C-102.48210937 94.89140625 -102.96421875 93.7828125 -103.4609375 92.640625 C-104.09890222 91.17705887 -104.73692616 89.71351856 -105.375 88.25 C-105.69210938 87.52039063 -106.00921875 86.79078125 -106.3359375 86.0390625 C-106.8 84.97558594 -106.8 84.97558594 -107.2734375 83.890625 C-107.55622559 83.24125977 -107.83901367 82.59189453 -108.13037109 81.92285156 C-108.73824122 80.57877939 -109.39993761 79.25834917 -110.10009766 77.95996094 C-111.33631364 75.26751875 -111.13282414 72.92213107 -111 70 C-111.886875 69.896875 -112.77375 69.79375 -113.6875 69.6875 C-120.02041458 68.3731215 -123.24409417 65.17705939 -127 60 C-130.03508109 53.92983782 -130.16016084 45.98844482 -128.27734375 39.515625 C-126.82925449 36.30286016 -125.62804297 34.42435336 -122.6875 32.4375 C-119.28838907 31.88415636 -116.38445417 32.46435954 -113 33 C-112.97494385 33.78238037 -112.9498877 34.56476074 -112.92407227 35.37084961 C-112.80850212 38.89324949 -112.68560051 42.4153556 -112.5625 45.9375 C-112.52318359 47.16919922 -112.48386719 48.40089844 -112.44335938 49.66992188 C-112.40146484 50.83974609 -112.35957031 52.00957031 -112.31640625 53.21484375 C-112.27974854 54.29886475 -112.24309082 55.38288574 -112.20532227 56.49975586 C-112.27635735 58.939263 -112.27635735 58.939263 -111 60 C-109.35 60 -107.7 60 -106 60 C-105.67 43.83 -105.34 27.66 -105 11 C-103.35 11.66 -101.7 12.32 -100 13 C-74.47211239 22.29370004 -48.65024984 22.91833433 -23.24609375 12.5625 C-16.9864601 9.54943928 -6.50756744 0 0 0 Z " fill="#E0A578" transform="translate(224,151)"/>
<path d="M0 0 C0.66 0 1.32 0 2 0 C3.04239561 1.19342452 4.03409725 2.43136204 5 3.6875 C10.60282148 10.29625603 19.03237108 14.04956599 27.55078125 15.40625 C38.75844818 15.78670828 49.3674932 12.51539402 60.11669922 9.66430664 C68.08869991 7.82757388 76.00006227 7.7811676 84.1328125 7.75976562 C86.36235812 7.75005506 88.59098215 7.71896827 90.8203125 7.6875 C101.96087723 7.60472639 111.34693623 8.58454565 119.75 16.6875 C121.07273553 19.13456072 121.2238141 20.70994955 121.5625 23.4375 C122.15872566 26.58310437 122.48918387 27.65088106 125.171875 29.484375 C126.94845895 30.29382449 128.73397022 31.08393107 130.52734375 31.85546875 C135.27717268 34.05404676 137.18214382 36.97834502 139.0663147 41.63581848 C141.99655528 50.40555639 142.56203294 58.44962278 142.4609375 67.63671875 C142.45854606 69.09308203 142.45764923 70.54944844 142.4581604 72.0058136 C142.45506262 75.02710852 142.43871618 78.04791864 142.41162109 81.0690918 C142.37730752 84.94395719 142.37000362 88.81830155 142.37151146 92.6933012 C142.37096899 95.68639609 142.36002731 98.67937683 142.34550858 101.67243385 C142.33914724 103.10259961 142.33520323 104.53277824 142.33372116 105.96295738 C142.32940027 107.94890385 142.31033482 109.93480191 142.29052734 111.9206543 C142.28290375 113.04948532 142.27528015 114.17831635 142.26742554 115.34135437 C142 118 142 118 140 120 C137.4375 120.1875 137.4375 120.1875 135 120 C134 119 134 119 133.87974548 117.24729919 C133.88196609 116.48562943 133.88418671 115.72395966 133.88647461 114.93920898 C133.88655014 114.07839218 133.88662567 113.21757538 133.88670349 112.33067322 C133.89186478 111.39526199 133.89702606 110.45985077 133.90234375 109.49609375 C133.90446617 108.06657127 133.90446617 108.06657127 133.90663147 106.60816956 C133.91224848 103.55124835 133.92480384 100.49439923 133.9375 97.4375 C133.94251281 95.37044376 133.94707609 93.30338638 133.95117188 91.23632812 C133.96222344 86.15752412 133.97949945 81.0787743 134 76 C132.85724609 75.80664062 132.85724609 75.80664062 131.69140625 75.609375 C124.59693513 74.00307965 120.82747771 68.74121656 117 63 C117 61.68 117 60.36 117 59 C116.46221924 59.33733154 115.92443848 59.67466309 115.37036133 60.0222168 C94.74380165 72.88493325 94.74380165 72.88493325 84 76 C83.35981934 76.19029785 82.71963867 76.3805957 82.06005859 76.57666016 C59.90595054 82.95916558 36.01771071 81.66368186 15 72 C14.01 71.34 13.02 70.68 12 70 C12.00222061 70.61165512 12.00444122 71.22331024 12.00672913 71.85350037 C12.02878122 78.19570331 12.04390627 84.53789544 12.05493164 90.88012695 C12.05997341 93.24992312 12.06680665 95.61971615 12.07543945 97.98950195 C12.0875119 101.38754039 12.09322971 104.78553785 12.09765625 108.18359375 C12.10281754 109.25024765 12.10797882 110.31690155 12.11329651 111.4158783 C12.11337204 112.39681961 12.11344757 113.37776093 12.11352539 114.38842773 C12.115746 115.25668686 12.11796661 116.12494598 12.12025452 117.01951599 C12 119 12 119 11 120 C8.5625 120.1875 8.5625 120.1875 6 120 C3.47270829 117.47270829 3.75772117 115.88739378 3.72354126 112.43997192 C3.72453827 111.67860931 3.72553528 110.9172467 3.7265625 110.1328125 C3.70623982 108.50780603 3.6853885 106.88280611 3.6640625 105.2578125 C3.64165539 102.70632444 3.62506994 100.15509686 3.61914062 97.60351562 C3.54330925 78.23618261 -2.0099009 64.68116881 -13.37280273 49.07543945 C-20.40543209 39.3778137 -20.40543209 39.3778137 -22 35 C-21.67 34.01 -21.34 33.02 -21 32 C-20.52691406 32.32613281 -20.05382812 32.65226562 -19.56640625 32.98828125 C-14.57688259 36.28545186 -9.74389135 38.36458649 -4 40 C-4.45890625 39.31035156 -4.9178125 38.62070313 -5.390625 37.91015625 C-15 23.19327731 -15 23.19327731 -15 18 C-10.3970402 19.72497507 -6.06744176 21.9095871 -1.6875 24.125 C-0.94693359 24.49753906 -0.20636719 24.87007812 0.55664062 25.25390625 C2.37201217 26.16744806 4.18613282 27.08347487 6 28 C5.72575195 27.45947998 5.45150391 26.91895996 5.16894531 26.36206055 C4.80897461 25.64832275 4.44900391 24.93458496 4.078125 24.19921875 C3.72137695 23.49369873 3.36462891 22.78817871 2.99707031 22.0612793 C-0.49808252 14.83562421 -0.21252606 7.85165726 0 0 Z " fill="#2B1C10" transform="translate(107,92)"/>
<path d="M0 0 C-0.144375 1.258125 -0.28875 2.51625 -0.4375 3.8125 C-0.46873662 10.42425057 3.33433056 14.78590123 7 20 C7.76987625 21.27991927 8.52367028 22.56987628 9.25 23.875 C9.8275 24.90625 10.405 25.9375 11 27 C11.53625 27.969375 12.0725 28.93875 12.625 29.9375 C13.305625 30.9584375 13.305625 30.9584375 14 32 C14.66 32 15.32 32 16 32 C17.39215273 30.14141602 17.39215273 30.14141602 18.75 27.73046875 C19.2759375 26.84166016 19.801875 25.95285156 20.34375 25.03710938 C20.8903125 24.09673828 21.436875 23.15636719 22 22.1875 C23.08287161 20.34738445 24.16618649 18.50752968 25.25 16.66796875 C25.72953125 15.84578857 26.2090625 15.0236084 26.703125 14.17651367 C27.75028443 12.41909155 28.86522447 10.7021633 30 9 C30.24150773 6.48415109 30.24150773 6.48415109 30.125 3.8125 C30.10695313 2.91144531 30.08890625 2.01039063 30.0703125 1.08203125 C30.04710937 0.39496094 30.02390625 -0.29210937 30 -1 C32.81416389 -1.05743192 34.43296266 -1.04000524 37 0 C38.6015625 1.89453125 38.6015625 1.89453125 40.1875 4.25 C43.71501918 9.24206955 47.19512366 10.70316217 52.82421875 12.78515625 C67.07048588 18.23483531 77.93045354 27.92273416 84.8125 41.4375 C85.15635742 42.11159912 85.50021484 42.78569824 85.85449219 43.48022461 C87.15906012 46.26513604 88.02357157 48.48034277 87.88305664 51.578125 C87 54 87 54 84.89306641 55.33032227 C83.97187012 55.65572998 83.05067383 55.9811377 82.1015625 56.31640625 C81.07426025 56.68628662 80.04695801 57.05616699 78.98852539 57.43725586 C77.87856201 57.80858643 76.76859863 58.17991699 75.625 58.5625 C74.49118896 58.95381104 73.35737793 59.34512207 72.18920898 59.74829102 C62.58133809 62.97933429 53.01554225 65.46033002 43 67 C42.26265625 67.11424316 41.5253125 67.22848633 40.765625 67.34619141 C10.61780374 71.79325857 -30.33585601 70.49286718 -57 54 C-58.12053571 51.23660717 -58.19273095 49.72839009 -57.43359375 46.859375 C-54.76320091 41.20442545 -51.7058329 36.04029341 -48 31 C-47.52175781 30.33097656 -47.04351562 29.66195313 -46.55078125 28.97265625 C-39.88400704 20.49225077 -30.1601437 14.88917453 -20.0625 11.5 C-14.30825247 9.51191448 -11.66625734 7.01968019 -8.46484375 1.890625 C-7 0 -7 0 -5.00390625 -0.828125 C-3 -1 -3 -1 0 0 Z " fill="#D3D1CB" transform="translate(165,286)"/>
<path d="M0 0 C0.57234375 0.46277344 1.1446875 0.92554688 1.734375 1.40234375 C9.59206716 6.9433715 20.71399924 7.02070712 30 8 C30.33 7.34 30.66 6.68 31 6 C32.14063363 15.03952153 28.42248577 20.20537938 23.5 27.5625 C22.78457031 28.66658203 22.06914062 29.77066406 21.33203125 30.90820312 C19.57250362 33.61787568 17.79519985 36.31388448 16 39 C9.0914069 36.69713563 5.53102399 26.48596463 2.296875 20.3828125 C0.963536 17.8483939 0.963536 17.8483939 -1 15 C-1.23046875 12.44140625 -1.23046875 12.44140625 -1.1875 9.5625 C-1.18105469 8.61503906 -1.17460937 7.66757812 -1.16796875 6.69140625 C-1.01959281 4.3139406 -0.67263878 2.27620963 0 0 Z " fill="#E1A77A" transform="translate(165,280)"/>
<path d="M0 0 C3.97480399 -0.08111845 5.99752894 0.19066557 9.12890625 2.71875 C12.97514148 6.99401734 12.97514148 6.99401734 14 10 C13.38882899 13.46022986 12.14961188 16.68730261 11 20 C10.42380942 22.0479242 9.86305151 24.1002422 9.31640625 26.15625 C9.02830078 27.1978125 8.74019531 28.239375 8.44335938 29.3125 C7.84836506 31.46556145 7.26531567 33.62195432 6.69335938 35.78125 C6.40396484 36.8125 6.11457031 37.84375 5.81640625 38.90625 C5.56318604 39.83759766 5.30996582 40.76894531 5.04907227 41.72851562 C4 44 4 44 0 46 C-4.62 42.7 -9.24 39.4 -14 36 C-13.09856933 31.49284664 -12.51139425 29.86172077 -10.05859375 26.26953125 C-9.18364258 24.94018555 -9.18364258 24.94018555 -8.29101562 23.58398438 C-7.06313168 21.74798087 -5.82364579 19.91967958 -4.57226562 18.09960938 C-0.51802674 11.88131385 0.92931632 7.42149809 0 0 Z " fill="#DFDEDD" transform="translate(195,285)"/>
<path d="M0 0 C-0.144375 1.258125 -0.28875 2.51625 -0.4375 3.8125 C-0.46873662 10.42425057 3.33433056 14.78590123 7 20 C7.76987625 21.27991927 8.52367028 22.56987628 9.25 23.875 C10.93020036 26.97647644 10.93020036 26.97647644 12.8125 29.6875 C14 32 14 32 13.984375 33.84765625 C12.43723386 37.23049263 9.46518052 38.79110027 6.4375 40.75 C5.82197266 41.16121094 5.20644531 41.57242188 4.57226562 41.99609375 C3.05495359 43.00763511 1.52833914 44.00519789 0 45 C-1.84375 44.4921875 -1.84375 44.4921875 -4 43 C-5.0250347 40.33610169 -5.8040375 37.8735626 -6.5 35.125 C-6.91849693 33.57886367 -7.33908387 32.0332916 -7.76171875 30.48828125 C-8.06988525 29.34480225 -8.06988525 29.34480225 -8.38427734 28.17822266 C-9.49291929 24.25621496 -10.90017482 20.43865296 -12.30078125 16.61328125 C-13.36684092 12.62895769 -13.73505892 9.44316569 -11.828125 5.69921875 C-11.30734375 5.03535156 -10.7865625 4.37148438 -10.25 3.6875 C-9.73953125 3.01074219 -9.2290625 2.33398438 -8.703125 1.63671875 C-5.73817696 -1.21262352 -3.83648002 -1.27882667 0 0 Z " fill="#DFDEDD" transform="translate(165,286)"/>
<path d="M0 0 C0.02505615 0.77714355 0.0501123 1.55428711 0.07592773 2.35498047 C0.19166796 5.86183069 0.31449352 9.36839745 0.4375 12.875 C0.47681641 14.09832031 0.51613281 15.32164062 0.55664062 16.58203125 C0.59853516 17.74863281 0.64042969 18.91523438 0.68359375 20.1171875 C0.72025146 21.19597168 0.75690918 22.27475586 0.79467773 23.38623047 C0.83376643 25.98069536 0.83376643 25.98069536 2 28 C1.67 28.99 1.34 29.98 1 31 C0.96079185 32.99961564 0.95556653 35.00049364 1 37 C-4.5768655 36.20330493 -7.80093047 34.2548402 -11.6875 30.1875 C-16.46890555 23.59691397 -16.84313145 16.95249908 -16 9 C-14.78304197 4.81629562 -13.33073816 1.8991474 -9.6875 -0.5625 C-6.28838907 -1.11584364 -3.38445417 -0.53564046 0 0 Z " fill="#E09868" transform="translate(111,184)"/>
<path d="M0 0 C3.41344845 2.51517254 4.65877977 5.04453695 6 9 C6.92777676 16.72428097 6.18573363 23.36805841 2 30 C-0.98282238 33.59468338 -3.49495812 35.69590893 -8 37 C-8.99 37 -9.98 37 -11 37 C-11.125 30.25 -11.125 30.25 -10 28 C-10.66 27.67 -11.32 27.34 -12 27 C-11.67 26.67 -11.34 26.34 -11 26 C-10.84193469 24.07521187 -10.748865 22.1450079 -10.68359375 20.21484375 C-10.64169922 19.04501953 -10.59980469 17.87519531 -10.55664062 16.66992188 C-10.49766602 14.82237305 -10.49766602 14.82237305 -10.4375 12.9375 C-10.39431641 11.70193359 -10.35113281 10.46636719 -10.30664062 9.19335938 C-10.20015802 6.12902665 -10.09814576 3.06460927 -10 0 C-6.73807441 -1.63096279 -3.4160777 -0.87435322 0 0 Z " fill="#E09868" transform="translate(259,184)"/>
<path d="M0 0 C1.16781006 0.00523682 2.33562012 0.01047363 3.53881836 0.01586914 C4.79887695 0.0190918 6.05893555 0.02231445 7.35717773 0.02563477 C8.6976732 0.03399136 10.03816799 0.04245632 11.37866211 0.05102539 C12.72306153 0.05603879 14.06746271 0.06060197 15.41186523 0.06469727 C18.71334151 0.07653051 22.01473014 0.09301568 25.31616211 0.11352539 C27.44116211 6.73852539 27.44116211 6.73852539 26.31616211 10.11352539 C16.46402474 10.6231187 5.89175277 9.25887979 -2.68383789 4.11352539 C-3.01383789 3.12352539 -3.34383789 2.13352539 -3.68383789 1.11352539 C-2.68383789 0.11352539 -2.68383789 0.11352539 0 0 Z " fill="#D69669" transform="translate(168.683837890625,277.886474609375)"/>
<path d="M0 0 C3.88561424 0.57564655 6.04613357 2.51253354 9 5 C12.94863671 6.97431835 17.69728231 6.44449563 22 6 C25.57916076 4.66571922 28.29108041 2.70891959 31 0 C33.125 0.375 33.125 0.375 35 1 C34.68349428 3.95405337 34.04226918 4.95897403 31.875 7.0625 C25.00057288 11.6952661 19.26873818 13.08111376 11 12 C6.32080817 10.47926266 1.91190645 8.05134811 -1 4 C-0.75 1.75 -0.75 1.75 0 0 Z " fill="#352414" transform="translate(163,245)"/>
<path d="M0 0 C2.375 1.625 2.375 1.625 4 4 C4.48288863 7.31123632 4.29618989 9.296549 3 12.375 C0.28967961 14.57713531 -1.70883166 14.51345108 -5.125 14.3125 C-7 14 -7 14 -9 12.9375 C-10.60856522 9.82090489 -10.42213381 7.43737531 -10 4 C-7.26646839 -0.10029741 -4.80388991 -0.80064832 0 0 Z " fill="#302013" transform="translate(152,196)"/>
<path d="M0 0 C3.4375 0.9375 3.4375 0.9375 5.375 2.0625 C7.08300843 5.07663252 6.79954814 7.55838399 6.4375 10.9375 C5.4375 12.875 5.4375 12.875 3.4375 13.9375 C0.67855859 14.39732357 -1.80824069 14.44818558 -4.5625 13.9375 C-7.2548481 11.74996717 -7.50186827 10.35326045 -8 6.9375 C-7.5625 3.9375 -7.5625 3.9375 -6 1.5 C-3.5625 -0.0625 -3.5625 -0.0625 0 0 Z " fill="#302012" transform="translate(211.5625,196.0625)"/>
<path d="M0 0 C3.13866609 1.56122978 5.64847785 3.39631962 8 6 C9 9.375 9 9.375 9 12 C5.80814911 11.6453499 4.36354547 11.38778183 2.125 9 C-0.87222064 6.17908646 -2.92758236 5.92855408 -7 6 C-9.66666667 8.33333333 -9.66666667 8.33333333 -12 11 C-14.8125 11.8125 -14.8125 11.8125 -17 12 C-16.86210108 9.03517326 -16.71055664 6.78765516 -14.66796875 4.5234375 C-9.93711203 0.5868122 -6.18077974 -1.13260362 0 0 Z " fill="#382616" transform="translate(153,179)"/>
<path d="M0 0 C3.09909459 1.59083186 5.63461471 3.43846081 8 6 C9 9.375 9 9.375 9 12 C6.6875 11.75 6.6875 11.75 4 11 C3.566875 10.34 3.13375 9.68 2.6875 9 C0.38378591 6.26967219 -1.53250651 6.05285136 -5.01171875 5.75390625 C-8.35292843 6.1674548 -9.85998572 8.5707946 -12 11 C-14.8125 11.8125 -14.8125 11.8125 -17 12 C-16.86297357 9.05393171 -16.70124445 6.79840482 -14.703125 4.5234375 C-9.93828098 0.48983192 -6.1894435 -0.71026401 0 0 Z " fill="#372515" transform="translate(215,179)"/>
<path d="M0 0 C1.66996439 3.33992878 0.05029603 6.76956856 -0.8125 10.25 C-1.08030273 11.37728516 -1.08030273 11.37728516 -1.35351562 12.52734375 C-2.37775731 16.76482018 -3.57364963 20.87686573 -5 25 C-5.54939444 26.78931215 -6.09160506 28.58085339 -6.625 30.375 C-6.88539063 31.24898438 -7.14578125 32.12296875 -7.4140625 33.0234375 C-7.70410156 34.00183594 -7.70410156 34.00183594 -8 35 C-11.47775179 33.48446596 -13.9557984 31.4226544 -16.75 28.875 C-17.54921875 28.15054687 -18.3484375 27.42609375 -19.171875 26.6796875 C-19.77515625 26.12539063 -20.3784375 25.57109375 -21 25 C-18 25 -18 25 -15 27.0625 C-14.01 27.701875 -13.02 28.34125 -12 29 C-11.01 28.67 -10.02 28.34 -9 28 C-7.84270102 25.32787962 -7.84270102 25.32787962 -6.9921875 22.03125 C-6.64542969 20.82082031 -6.29867187 19.61039062 -5.94140625 18.36328125 C-5.58535898 17.07568067 -5.22989728 15.78791803 -4.875 14.5 C-4.16896001 11.98816336 -3.45580943 9.4784541 -2.7421875 6.96875 C-2.4313623 5.84919922 -2.12053711 4.72964844 -1.80029297 3.57617188 C-1 1 -1 1 0 0 Z " fill="#BAB9B7" transform="translate(207,301)"/>
<path d="M0 0 C2 1 2 1 2.68603516 2.67407227 C2.88503418 3.38104248 3.0840332 4.0880127 3.2890625 4.81640625 C3.50820312 5.58017578 3.72734375 6.34394531 3.953125 7.13085938 C4.17484375 7.93330078 4.3965625 8.73574219 4.625 9.5625 C4.85445312 10.36880859 5.08390625 11.17511719 5.3203125 12.00585938 C5.88724154 14.00192203 6.44452643 16.00071919 7 18 C11.38206967 18 12.30426964 17.43228025 15.75 15 C16.54921875 14.443125 17.3484375 13.88625 18.171875 13.3125 C18.77515625 12.879375 19.3784375 12.44625 20 12 C20.66 12.33 21.32 12.66 22 13 C20.98679688 13.79664063 20.98679688 13.79664063 19.953125 14.609375 C19.06109375 15.31578125 18.1690625 16.0221875 17.25 16.75 C16.36828125 17.44609375 15.4865625 18.1421875 14.578125 18.859375 C11.98412985 20.93605928 11.98412985 20.93605928 9.796875 23.265625 C8 25 8 25 6 25 C5.60167969 23.46279297 5.60167969 23.46279297 5.1953125 21.89453125 C4.83870972 20.53381011 4.48192949 19.17313547 4.125 17.8125 C3.95097656 17.13896484 3.77695313 16.46542969 3.59765625 15.77148438 C2.82483625 12.83763066 2.00249785 10.00624462 0.875 7.1875 C-0.13480892 4.66297771 -0.15396332 2.69435805 0 0 Z " fill="#BCBBB9" transform="translate(155,311)"/>
<path d="M0 0 C1.7093832 3.41876639 -0.04366223 7.06121965 -0.9375 10.625 C-1.13279297 11.42679687 -1.32808594 12.22859375 -1.52929688 13.0546875 C-2.01331602 15.03798547 -2.50586022 17.01919934 -3 19 C-5 16 -5 16 -4.609375 13.22265625 C-4.32578125 12.17980469 -4.0421875 11.13695312 -3.75 10.0625 C-3.47671875 9.02222656 -3.2034375 7.98195313 -2.921875 6.91015625 C-2.13554146 4.42787454 -1.24980872 2.27487114 0 0 Z " fill="#C4C3C1" transform="translate(207,301)"/>
<path d="M0 0 C2.31 0.33 4.62 0.66 7 1 C4.525 5.455 4.525 5.455 2 10 C1.67 10 1.34 10 1 10 C0.67 6.7 0.34 3.4 0 0 Z " fill="#BDBAB6" transform="translate(195,285)"/>
<path d="M0 0 C-0.33 2.97 -0.66 5.94 -1 9 C-3.24027294 6.11964908 -5.16172132 3.15133488 -7 0 C-3.98968256 -0.93423645 -3.13349732 -1.04449911 0 0 Z " fill="#BDBAB6" transform="translate(165,286)"/>
</svg>
